# xmcd
#
# Track frame offsets: 
#        150
#        24465
#        45293
#        60628
#        86433
#        103588
#        128955
#        151820
#        167903
#        185693
#
# Disc length: 2729 seconds
#
# Revision: 0
# Processed by: cddbd v1.5.2PL0 Copyright (c) Steve Scherf et al.
# Submitted via: ExactAudioCopy v1.0b3
#
DISCID=770aa70a
DTITLE=Various Artist - Da vu Mung Xuan
DYEAR=1990
DGENRE=
TTITLE0=Ngoc Lan - Xuan yeu thuong [new wave]
TTITLE1=Huong Lan - Canh thiep dau Xuan [bolero]
TTITLE2=Kim Anh - Xuan hop mat [bebop]
TTITLE3=Tuan Vu - Mua Xuan la kho [rumba]
TTITLE4=Thanh Tuyen - Anh cho em mua Xuan [chacha]
TTITLE5=Tuan Vu - Dam cuoi dau Xuan [bolero]
TTITLE6=Nhu Mai - Xuan da ve [samba]
TTITLE7=Huong Lan - Toi da gap mua Xuan [slow rock]
TTITLE8=Quoc Anh - Dau Xuan linh chuc [chacha]
TTITLE9=Thuy Vi - Xuan ca [bebop]
EXTD=
EXTT0=
EXTT1=
EXTT2=
EXTT3=
EXTT4=
EXTT5=
EXTT6=
EXTT7=
EXTT8=
EXTT9=
PLAYORDER=
